P2
# barbara.pgma created by PGMA_IO::PGMA_WRITE.
12  12
220
151  146  142  137  135  131  129  125  115  114  108  103 
92  88  84  74  71  65  60  57  50  51  49  48 
46  54  57  64  71  78  88  94  107  113  119  126 
133  140  145  149  156  158  162  165  165  166  167  166 
162  163  154  147  140  127  119  103  100  90  80  77 
69  57  56  52  55  61  69  74  95  105  110  132 
138  149  158  160  168  172  176  179  179  133  93  92 
89  95  107  132  145  141  140  139  134  134  131  131 
133  132  129  128  128  130  131  131  133  133  132  133 
135  135  133  134  130  132  134  130  133  133  133  134 
129  133  132  132  133  132  133  132  135  132  136  134 
133  134  130  136  131  131  134  138  135  138  136  134 
